<?xml version="1.0" encoding="utf-8"?>
<!-- Generator: Adobe Illustrator 26.0.3, SVG Export Plug-In . SVG Version: 6.00 Build 0)  -->
<svg version="1.1" id="Layer_1" xmlns="http://www.w3.org/2000/svg" xmlns:xlink="http://www.w3.org/1999/xlink" x="0px" y="0px"
	 viewBox="0 0 50 50" style="enable-background:new 0 0 50 50;" xml:space="preserve">
<style type="text/css">
	.st0{fill:#016699;}
	.st1{fill:#333333;stroke:#333333;stroke-width:0.75;stroke-linecap:round;stroke-linejoin:round;stroke-miterlimit:10;}
	.st2{fill:#CB3727;}
</style>
<rect x="16.2" y="17.4" transform="matrix(-1.836970e-16 1 -1 -1.836970e-16 47.1878 -2.818)" class="st0" width="17.6" height="9.5"/>
<rect x="1.4" y="22.6" transform="matrix(-1.836970e-16 1 -1 -1.836970e-16 32.4188 22.3214)" class="st0" width="7.2" height="9.5"/>
<g>
	<path class="st1" d="M11.9,10.5L12,1.8l0,0c1.1-1.1,2.9-1.1,4,0l0,0l-0.1,8.6l0,0C14.7,11.3,13.1,11.3,11.9,10.5"/>
	<g id="line_00000136404645112629281350000014604268657287485314_">
		<path class="st1" d="M18.1,0.9l0,10.6l13.7,0.1l0-6.1c0,0,9.1,0,12.2,3.1c0,0-3.8-6.9-12.1-7.7S18.1,0.9,18.1,0.9z"/>
	</g>
</g>
<path class="st1" d="M46.3,47.1c-3.3,3.2-8.6,3.2-11.8-0.1c-3.2-3.3-3.2-8.6,0.1-11.8c3.3-3.2,8.6-3.2,11.8,0.1
	c0.6,0.6,1.1,1.3,1.5,2L40,37.4c-1.3,2.6-1.1,4.6,0.1,7l8,0C47.7,45.3,47.1,46.3,46.3,47.1z"/>
<rect x="10.3" y="26.4" transform="matrix(-1.836970e-16 1 -1 -1.836970e-16 56.1384 26.0868)" class="st2" width="9.5" height="29.5"/>
<rect x="9.5" y="20.7" transform="matrix(-1.836970e-16 1 -1 -1.836970e-16 40.44 10.3884)" class="st0" width="11.1" height="9.5"/>
<rect x="32.6" y="23.9" transform="matrix(-1.836970e-16 1 -1 -1.836970e-16 63.6071 -6.353)" class="st0" width="4.7" height="9.5"/>
<rect x="43.4" y="24.7" transform="matrix(-1.836970e-16 1 -1 -1.836970e-16 74.3734 -15.5408)" class="st0" width="3.1" height="9.5"/>
</svg>
